# xmcd
#
# Track frame offsets:
#	150
#	22145
#	38441
#	62341
#	81415
#	96896
#
# Disc length: 1508 seconds
#
# Revision: 1
# Processed by: cddbd v1.5.2PL0 Copyright (c) Steve Scherf et al.
# Submitted via: audiograbber 1.83.01
#
DISCID=4105e206
DTITLE=Backspin - Blue Sand
DYEAR=2009
DGENRE=Alternative Rock
TTITLE0=Pulse
TTITLE1=Glowing Days
TTITLE2=Blue Sand
TTITLE3=Slowround
TTITLE4=Part of the plan
TTITLE5=Soon
EXTD=
EXTT0=
EXTT1=
EXTT2=
EXTT3=
EXTT4=
EXTT5=
PLAYORDER=
